# Blender 4.3.2
# www.blender.org
mtllib H1.mtl
o Curve.001
v -0.897931 -0.189000 1.732854
v -0.897931 -0.189000 1.525461
v -1.105369 -0.189000 1.525461
v -1.105369 -0.189000 1.110673
v -1.312806 -0.189000 1.110673
v -1.312806 -0.189000 0.695886
v -1.520244 -0.189000 0.695886
v -1.520244 -0.189000 -0.686739
v -1.312806 -0.189000 -0.686739
v -1.312806 -0.189000 -1.101527
v -1.105369 -0.189000 -1.101527
v -1.105369 -0.189000 -1.516315
v -0.897931 -0.189000 -1.516315
v -0.897931 -0.189000 -1.931102
v 0.899861 -0.189000 -1.931102
v 0.899861 -0.189000 -1.516315
v 1.107299 -0.189000 -1.516315
v 1.107299 -0.189000 -1.101527
v 1.314736 -0.189000 -1.101527
v 1.314736 -0.189000 -0.686739
v 1.522174 -0.189000 -0.686739
v 1.522174 -0.189000 0.695886
v 1.314736 -0.189000 0.695886
v 1.314736 -0.189000 1.110673
v 1.107299 -0.189000 1.110673
v 1.107299 -0.189000 1.525461
v 0.899861 -0.189000 1.525461
v 0.899861 -0.189000 1.940248
v -0.897931 -0.189000 1.940248
v -0.897931 0.189000 -1.516315
v -0.897931 0.189000 -1.931102
v 0.899861 0.189000 -1.931102
v 0.899861 0.189000 -1.516315
v -1.105369 0.189000 -1.101527
v -1.105369 0.189000 -1.516315
v 1.107299 0.189000 -1.516315
v 1.107299 0.189000 -1.101527
v -1.312806 0.189000 -0.686739
v -1.312806 0.189000 -1.101527
v 1.314736 0.189000 -1.101527
v 1.314736 0.189000 -0.686739
v -1.520244 0.189000 0.695886
v -1.520244 0.189000 -0.686739
v 1.522174 0.189000 -0.686739
v 1.522174 0.189000 0.695886
v -1.312806 0.189000 1.110673
v -1.312806 0.189000 0.695886
v 1.314736 0.189000 0.695886
v 1.314736 0.189000 1.110673
v -1.105369 0.189000 1.525461
v -1.105369 0.189000 1.110673
v 1.107299 0.189000 1.110673
v 1.107299 0.189000 1.525461
v -0.897931 0.189000 1.525461
v -0.897931 0.189000 1.732854
v 0.899861 0.189000 1.525461
v 0.899861 0.189000 1.940248
v -0.897931 0.189000 1.940248
vn 1.0000 -0.0000 -0.0000
vn -0.0000 -0.0000 -1.0000
vn -0.0000 -0.0000 1.0000
vn -1.0000 -0.0000 -0.0000
vn -0.0000 1.0000 -0.0000
vn -0.0000 -1.0000 -0.0000
vt 0.000000 0.000000
vt 0.928571 0.000000
vt 0.035714 0.000000
vt 0.142857 0.000000
vt 0.821429 0.000000
vt 0.785714 0.000000
vt 0.178571 0.000000
vt 0.892857 0.000000
vt 0.750000 0.000000
vt 0.214286 0.000000
vt 0.107143 0.000000
vt 0.857143 0.000000
vt 0.428571 0.000000
vt 0.500000 0.000000
vt 0.464286 0.000000
vt 0.535714 0.000000
vt 0.357143 0.000000
vt 0.392857 0.000000
vt 0.571429 0.000000
vt 0.607143 0.000000
vt 0.285714 0.000000
vt 0.321429 0.000000
vt 0.642857 0.000000
vt 0.678571 0.000000
vt 0.250000 0.000000
vt 0.714286 0.000000
vt 0.071429 0.000000
vt 0.964286 0.000000
vt 1.000000 0.000000
s 0
usemtl SVGMat.001
f 24/1/1 23/1/1 48/1/1 49/1/1
f 27/2/2 2/3/2 54/3/2 56/2/2
f 5/4/3 24/5/3 49/5/3 46/4/3
f 8/1/4 7/1/4 42/1/4 43/1/4
f 13/1/2 12/1/2 35/1/2 30/1/2
f 2/1/4 1/1/4 55/1/4 54/1/4
f 20/1/1 19/1/1 40/1/1 41/1/1
f 23/6/2 6/7/2 47/7/2 48/6/2
f 2/3/3 26/8/3 53/8/3 54/3/3
f 12/1/4 11/1/4 34/1/4 35/1/4
f 3/1/3 2/1/3 54/1/3 50/1/3
f 19/1/2 18/1/2 37/1/2 40/1/2
f 6/1/4 5/1/4 46/1/4 47/1/4
f 16/1/1 15/1/1 32/1/1 33/1/1
f 6/7/5 22/9/5 7/10/5
f 26/1/1 25/1/1 52/1/1 53/1/1
f 23/6/5 22/9/5 6/7/5
f 15/1/2 14/1/2 31/1/2 32/1/2
f 4/11/5 24/5/5 5/4/5
f 11/1/2 10/1/2 39/1/2 34/1/2
f 25/12/5 24/5/5 4/11/5
f 22/1/1 21/1/1 44/1/1 45/1/1
f 25/12/2 4/11/2 51/11/2 52/12/2
f 29/1/3 28/1/3 57/1/3 58/1/3
f 27/2/6 26/8/6 2/3/6
f 7/10/3 22/9/3 45/9/3 42/10/3
f 14/1/4 13/1/4 30/1/4 31/1/4
f 30/13/5 32/14/5 31/15/5
f 30/13/5 33/16/5 32/14/5
f 34/17/5 30/13/5 35/18/5
f 34/17/5 33/16/5 30/13/5
f 34/17/5 36/19/5 33/16/5
f 34/17/5 37/20/5 36/19/5
f 38/21/5 34/17/5 39/22/5
f 38/21/5 37/20/5 34/17/5
f 38/21/5 40/23/5 37/20/5
f 38/21/5 41/24/5 40/23/5
f 42/10/5 38/21/5 43/25/5
f 42/10/5 41/24/5 38/21/5
f 42/10/5 44/26/5 41/24/5
f 42/10/5 45/9/5 44/26/5
f 46/4/5 48/6/5 47/7/5
f 46/4/5 49/5/5 48/6/5
f 50/27/5 52/12/5 51/11/5
f 50/27/5 53/8/5 52/12/5
f 54/3/5 53/8/5 50/27/5
f 55/1/5 56/2/5 54/3/5
f 55/1/5 57/28/5 56/2/5
f 58/29/5 57/28/5 55/1/5
f 9/1/2 8/1/2 43/1/2 38/1/2
f 17/1/2 16/1/2 33/1/2 36/1/2
f 28/1/1 27/1/1 56/1/1 57/1/1
f 18/1/1 17/1/1 36/1/1 37/1/1
f 4/1/4 3/1/4 50/1/4 51/1/4
f 21/1/2 20/1/2 41/1/2 44/1/2
f 1/1/4 29/1/4 58/1/4 55/1/4
f 10/1/4 9/1/4 38/1/4 39/1/4
f 22/1/6 7/1/6 8/1/6 21/1/6
f 24/1/6 5/1/6 6/1/6 23/1/6
f 26/1/6 3/1/6 4/1/6 25/1/6
f 29/1/6 2/1/6 27/1/6 28/1/6
f 9/1/6 10/1/6 19/1/6 20/1/6
f 11/1/6 12/1/6 17/1/6 18/1/6
f 13/1/6 14/1/6 15/1/6 16/1/6
